<svg version="1.1" id="Layer_1" xmlns="http://www.w3.org/2000/svg" xmlns:xlink="http://www.w3.org/1999/xlink" x="0px" y="0px"
	 width="100%" viewBox="0 0 1024 1024" enable-background="new 0 0 1024 1024" xml:space="preserve">
<path fill="#000000" opacity="1.000000" stroke="none" 
	d="
M455.000000,1025.000000 
	C303.333344,1025.000000 152.166672,1025.000000 1.000000,1025.000000 
	C1.000000,683.666687 1.000000,342.333344 1.000000,1.000000 
	C342.333344,1.000000 683.666687,1.000000 1025.000000,1.000000 
	C1025.000000,342.333344 1025.000000,683.666687 1025.000000,1025.000000 
	C835.166687,1025.000000 645.333313,1025.000000 455.000000,1025.000000 
M714.862305,521.988342 
	C714.862305,531.288513 714.862305,540.588745 714.862305,549.888916 
	C715.262573,549.885864 715.662842,549.882874 716.063110,549.879883 
	C716.063110,540.448425 716.078674,531.016846 716.018494,521.585815 
	C716.015381,521.098877 715.364563,520.616150 714.977478,519.501221 
	C714.990845,519.291138 715.004150,519.081116 715.801392,518.513062 
	C715.801392,504.056458 715.801392,489.599884 715.801392,475.143280 
	C715.476013,475.143707 715.150696,475.144135 714.825317,475.144531 
	C714.825317,489.410431 714.825317,503.676361 714.548401,517.177734 
	C714.384766,514.862122 714.094482,512.547302 714.079651,510.230743 
	C714.016846,500.414032 714.163574,490.593536 713.911255,480.782684 
	C713.863892,478.939758 712.822205,476.196564 711.415955,475.476288 
	C705.614807,472.505066 700.966614,475.633331 700.955811,482.181488 
	C700.921814,502.813995 700.938599,523.446594 700.968140,544.079163 
	C700.970459,545.672546 701.225830,547.265503 701.354004,548.748047 
	C713.200928,550.153137 713.949707,549.445129 714.082825,538.440796 
	C714.152893,532.644348 714.566772,526.852112 714.862305,521.988342 
M839.151489,535.157227 
	C839.151489,515.900452 839.151489,496.643707 839.151489,477.386932 
	C838.777161,477.386627 838.402771,477.386353 838.028442,477.386078 
	C838.028442,496.922821 838.028442,516.459595 837.755188,535.218750 
	C837.523254,532.750305 837.100525,530.282654 837.090393,527.813293 
	C837.027161,512.338806 837.145752,496.862793 836.944397,481.390656 
	C836.918213,479.378967 835.954712,476.377716 834.474854,475.564514 
	C828.817017,472.455353 823.946045,475.648071 823.933289,482.094025 
	C823.892395,502.726929 823.903870,523.359985 823.923523,543.992981 
	C823.925110,545.595581 824.147339,547.197998 824.274902,548.906006 
	C839.298889,548.906006 853.857971,548.906006 868.350525,548.906006 
	C870.306335,539.403687 869.155273,537.937317 860.019043,537.917725 
	C855.193604,537.907410 850.357910,538.090088 845.547607,537.818359 
	C843.534180,537.704651 841.574585,536.637756 839.151489,535.157227 
M505.129700,628.887207 
	C505.398010,631.014771 505.854645,633.138428 505.898163,635.270569 
	C506.013763,640.934631 506.075623,646.605774 505.921417,652.267578 
	C505.789856,657.097351 508.469147,658.052063 512.586426,658.101379 
	C516.891113,658.152893 519.246399,656.773193 519.070251,652.106812 
	C518.919434,648.113098 519.396912,644.073608 518.992859,640.116028 
	C518.098267,631.352844 520.813782,623.927734 525.671143,616.716003 
	C531.622253,607.880432 536.913757,598.593018 542.266479,589.370972 
	C543.023865,588.066040 543.219666,585.020813 542.473328,584.498474 
	C538.958313,582.038330 530.694946,584.445923 528.438171,588.247131 
	C524.695312,594.551514 521.051697,600.914673 517.325317,607.228882 
	C513.838562,613.137085 510.735046,613.138550 507.199738,607.181824 
	C503.883118,601.593567 500.367065,596.090698 497.522400,590.265259 
	C495.026001,585.152954 491.445038,583.364990 485.943695,583.867249 
	C480.515228,584.362854 479.857056,585.123657 482.661133,589.801575 
	C489.085938,600.519958 495.635956,611.163330 502.044525,621.891296 
	C503.224365,623.866333 503.977570,626.096252 504.287689,628.718079 
	C504.287689,638.453430 504.287689,648.188782 504.287689,657.924133 
	C504.475555,657.924316 504.663452,657.924561 504.851318,657.924744 
	C504.851318,647.990967 504.851318,638.057129 505.129700,628.887207 
M676.983154,411.942566 
	C676.983154,420.910736 676.983154,429.878937 676.983154,438.847107 
	C677.313538,438.844849 677.643982,438.842560 677.974365,438.840302 
	C677.974365,429.573151 677.974365,420.305969 678.532471,410.532990 
	C680.583618,410.049591 682.622253,409.224701 684.688416,409.148468 
	C690.346375,408.939667 696.016174,409.009491 701.680908,409.040253 
	C705.460815,409.060760 707.051636,407.253357 707.050476,403.499084 
	C707.049316,399.744812 705.476318,397.956390 701.677979,397.982208 
	C695.513611,398.024109 689.344849,397.807800 683.184692,397.965332 
	C678.634399,398.081665 676.749634,396.065552 677.069885,391.644623 
	C677.165955,390.318878 677.068237,388.979767 677.075867,387.646851 
	C677.121948,379.547180 677.568665,379.074646 685.501282,379.050598 
	C693.305237,379.026947 701.109314,379.045410 708.913330,379.045410 
	C708.907837,378.674805 708.902344,378.304169 708.896790,377.933563 
	C699.615417,377.933563 690.334045,377.933563 681.052612,377.933563 
	C689.119202,377.022491 697.190613,376.953522 705.259949,377.051361 
	C709.338074,377.100800 710.903320,375.176941 710.898621,371.244080 
	C710.893982,367.382721 709.427246,365.246185 705.359680,365.247131 
	C693.030273,365.250031 680.700867,365.227203 668.371521,365.185150 
	C664.669128,365.172546 662.917786,366.833679 662.928406,370.649078 
	C662.987610,391.976410 662.982361,413.304108 662.938599,434.631531 
	C662.930908,438.400726 664.593506,439.994690 668.369995,440.089386 
	C674.899048,440.253113 675.858215,439.402496 676.070435,432.873108 
	C676.307434,425.582001 676.717224,418.296539 676.983154,411.942566 
M446.018616,378.058350 
	C446.018616,378.058350 445.990662,378.006775 446.750214,377.687286 
	C454.405945,376.001312 461.579102,376.725250 468.139160,381.503784 
	C469.441925,382.452728 472.005371,383.438507 472.910461,382.823151 
	C475.299164,381.199127 477.986328,378.982208 478.776001,376.447266 
	C479.209625,375.055359 476.445099,371.932739 474.444916,370.634613 
	C459.908997,361.200897 441.860809,362.209167 428.204803,372.566742 
	C424.469940,375.399445 420.893433,378.297485 418.706909,383.220245 
	C412.824860,396.463165 413.160736,409.066162 418.518311,422.360382 
	C420.831818,428.101074 425.003357,432.695343 429.184814,435.097351 
	C445.564941,444.507050 462.469727,444.748077 478.112427,432.736664 
	C479.614105,431.583557 480.494110,427.070740 479.493927,425.699554 
	C476.765472,421.959076 469.391327,422.245483 465.702972,425.425842 
	C464.834473,426.174652 464.092560,427.222748 463.087799,427.637299 
	C454.045807,431.368500 445.263763,430.608002 437.637787,424.529541 
	C430.197235,418.598969 427.648071,410.367645 429.021393,401.376251 
	C429.106323,401.799316 429.191284,402.222412 429.276215,402.645477 
	C429.449707,402.579590 429.623199,402.513733 429.796692,402.447845 
	C429.528137,401.962555 429.259583,401.477295 428.979156,400.245575 
	C429.416077,398.326630 429.932037,396.421753 430.276276,394.486328 
	C431.712860,386.407776 438.068634,379.713104 446.018616,378.058350 
M440.980072,485.989777 
	C440.980072,485.989777 440.959259,485.973175 441.559113,486.421844 
	C446.695862,486.386871 451.510010,487.033264 456.404602,489.283051 
	C458.098846,490.061829 461.889008,486.280853 464.721802,484.582581 
	C463.646912,482.883514 462.959778,480.612396 461.434174,479.578339 
	C451.638824,472.939056 440.681763,472.653534 429.746033,475.368408 
	C425.921204,476.317963 420.935059,478.966461 419.593872,482.150848 
	C417.167145,487.912842 417.080627,494.660431 415.914673,501.089722 
	C415.914673,501.089722 415.870392,501.279877 415.870392,501.279877 
	C415.870392,501.279877 415.969452,500.955597 416.364532,501.525574 
	C419.376282,509.156433 425.424133,513.128052 432.936615,515.434692 
	C437.541809,516.848694 442.218323,518.158813 446.617584,520.077698 
	C450.704742,521.860413 453.402985,525.262390 452.602722,529.995544 
	C451.809967,534.684509 448.566772,537.832458 443.952789,538.583923 
	C437.217346,539.680847 430.700348,539.028809 425.364319,533.888733 
	C422.431427,531.063599 419.648621,532.152954 415.567841,536.888000 
	C412.885406,540.000549 414.671509,542.189514 417.112152,543.271545 
	C423.577606,546.137939 430.107666,549.325317 436.952240,550.748169 
	C444.967316,552.414307 453.932251,550.771484 459.571014,545.353394 
	C472.509186,532.921509 467.808685,514.685913 453.153809,508.915863 
	C448.208801,506.968872 443.016998,505.657776 438.018433,503.835388 
	C432.295532,501.748810 429.742493,498.424164 430.224243,494.205688 
	C430.668488,490.315735 435.897156,486.335236 440.980072,485.989777 
M448.902954,582.868652 
	C445.237701,582.910034 441.558380,582.761230 437.910095,583.031433 
	C429.712677,583.638733 422.408691,586.535156 418.163239,593.887329 
	C413.235931,602.420410 415.716217,610.943115 419.854218,619.090637 
	C420.243164,619.856445 421.283203,620.488220 422.155548,620.780701 
	C428.926514,623.050903 435.690735,625.357178 442.536957,627.382019 
	C448.003296,628.998657 449.466431,634.175842 452.403442,638.007324 
	C452.867981,638.613342 452.128357,640.658020 451.384857,641.590576 
	C446.552124,647.652222 439.197418,649.701843 431.832245,646.679077 
	C428.341003,645.246277 425.120056,643.039551 421.986237,640.879272 
	C417.785553,637.983765 416.564056,642.250793 414.258453,643.840210 
	C411.978943,645.411560 412.215515,647.159363 413.865082,649.263245 
	C420.578400,657.825745 442.300598,662.471802 452.304504,658.026978 
	C459.757172,654.715698 464.195740,649.228210 467.026733,642.025269 
	C467.026733,642.025269 466.971191,642.024963 466.917847,641.140808 
	C466.807465,626.973206 462.541290,621.037476 449.071899,616.398499 
	C445.299225,615.099182 441.465759,613.973206 437.710114,612.628296 
	C433.117249,610.983704 429.939178,606.165405 430.596527,601.432068 
	C431.303802,596.339539 435.496002,594.489075 439.649231,594.467651 
	C443.979156,594.445251 448.522034,595.523010 452.602112,597.085266 
	C458.094727,599.188416 461.620850,598.570557 465.596741,593.315002 
	C462.232330,587.233337 455.713654,585.884155 450.250549,582.972656 
	C450.250549,582.972656 450.148590,582.661621 450.148590,582.661621 
	C450.148590,582.661621 449.809143,582.781738 448.902954,582.868652 
M543.030396,503.019867 
	C543.030396,503.019867 542.976135,503.021332 542.892151,502.152679 
	C542.725159,495.008148 541.461731,488.207581 536.435547,482.700073 
	C535.256165,481.407806 533.951233,480.053436 532.423889,479.283386 
	C520.379883,473.211060 507.362335,475.147156 494.623657,474.959198 
	C488.681396,474.871521 487.971558,475.658447 487.956787,481.593567 
	C487.905762,502.073090 487.907837,522.552856 487.944031,543.032471 
	C487.954102,548.737061 489.098694,549.811462 494.577850,549.782043 
	C499.989899,549.752991 500.826416,548.738708 501.067261,542.849915 
	C501.310425,536.905334 501.789978,530.970398 502.053680,525.958496 
	C502.053680,533.569092 502.053680,541.179626 502.053680,548.790222 
	C502.335876,548.791016 502.618042,548.791809 502.900238,548.792603 
	C502.900238,540.906128 502.900238,533.019592 503.636963,524.736023 
	C507.260010,524.513672 511.009796,524.810059 514.480042,523.962158 
	C521.981323,522.129456 529.789368,520.588196 536.547791,517.124573 
	C539.501892,515.610596 540.193298,509.674469 541.901367,505.741760 
	C542.297302,504.830017 542.648743,503.898956 543.030396,503.019867 
M752.055115,536.006470 
	C752.055115,536.006470 751.982910,536.012756 752.316772,535.462830 
	C754.101135,534.796326 755.858032,533.655518 757.674927,533.550354 
	C763.654785,533.204041 769.656982,533.117249 775.649597,533.145569 
	C784.151428,533.185730 784.888123,533.781067 788.070862,541.775085 
	C790.984253,549.092407 791.666870,549.423828 799.541748,549.128845 
	C803.426880,548.983337 804.644775,547.755615 803.064941,543.890991 
	C794.305847,522.463562 785.584229,501.019775 777.055908,479.499939 
	C775.178528,474.762848 771.584534,475.003998 767.688599,474.869446 
	C763.932800,474.739807 761.436035,475.811188 760.017944,479.649902 
	C757.249451,487.143799 754.092041,494.494141 751.093567,501.903015 
	C745.408203,515.950684 739.664246,529.975403 734.130493,544.082520 
	C733.624695,545.372009 733.917236,548.103760 734.764038,548.605957 
	C739.232056,551.255554 746.231873,548.427795 748.341614,543.589172 
	C749.465698,541.010925 750.782288,538.516724 752.055115,536.006470 
M715.727539,644.166443 
	C715.394348,641.034668 715.105347,637.897461 714.717590,634.772461 
	C714.143372,630.145264 716.073608,627.873047 720.800232,627.812866 
	C727.288574,627.730286 733.777771,627.296387 740.261047,627.391174 
	C743.967224,627.445374 745.974670,626.409729 745.975647,622.424011 
	C745.976624,618.722168 746.062744,615.145508 740.879211,615.137329 
	C735.881592,615.129456 730.884033,615.087463 725.886414,615.085999 
	C715.483276,615.082825 714.856018,614.466614 714.871094,604.132874 
	C714.871765,603.633179 714.899170,603.133240 714.890869,602.633850 
	C714.816040,598.100708 716.911499,595.918762 721.573669,595.988647 
	C728.901794,596.098572 736.233582,595.935852 743.563171,595.980347 
	C747.731018,596.005676 749.011780,593.768127 749.003967,589.955750 
	C748.996155,586.176575 747.823730,583.917053 743.593079,583.941589 
	C731.265625,584.013000 718.937073,584.001953 706.609497,583.933960 
	C702.812805,583.913086 701.127380,585.686157 701.132507,589.389038 
	C701.161743,610.546387 701.167297,631.703674 701.184082,652.861023 
	C701.186829,656.277771 702.686829,658.089050 706.324707,658.072083 
	C718.652405,658.014648 730.981018,658.004578 743.308350,658.100891 
	C747.753662,658.135559 749.097168,655.877258 748.947327,651.819214 
	C748.795898,647.717590 746.324219,647.008850 742.927734,646.935242 
	C733.963013,646.741028 725.001526,646.396484 716.969788,646.119324 
	C726.719910,646.119324 736.470093,646.119324 746.220215,646.119324 
	C746.220947,645.721619 746.221680,645.323975 746.222412,644.926270 
	C736.156616,644.926270 726.090759,644.926270 715.727539,644.166443 
M746.970764,395.805267 
	C755.949158,395.805267 764.927551,395.805267 773.905945,395.805267 
	C773.904968,395.594543 773.903992,395.383850 773.903015,395.173126 
	C764.614197,395.173126 755.325439,395.173126 745.768555,394.367798 
	C745.535278,392.058197 745.128174,389.750671 745.100403,387.438599 
	C745.007202,379.688263 745.611694,379.090424 753.201233,379.056244 
	C760.820190,379.021912 768.439453,379.048706 776.058594,379.048706 
	C776.061035,378.699249 776.063538,378.349762 776.066040,378.000305 
	C767.056274,378.000305 758.046509,378.000305 749.036804,378.000305 
	C757.175537,377.030640 765.307068,376.974548 773.437256,377.054382 
	C777.477905,377.094055 779.064148,375.215515 779.089417,371.248718 
	C779.113953,367.405151 777.858276,365.174042 773.710999,365.184967 
	C761.212891,365.217834 748.714600,365.209351 736.216431,365.218658 
	C732.742004,365.221252 731.026672,366.893341 731.032043,370.438232 
	C731.064636,391.935577 731.062073,413.432983 731.060425,434.930389 
	C731.060120,438.443634 732.744629,440.076202 736.288391,440.060852 
	C748.786682,440.006683 761.285400,439.988312 773.783569,440.046753 
	C778.076782,440.066833 779.070435,437.667938 779.075745,433.938934 
	C779.081238,430.087494 777.751892,427.933289 773.588318,427.993347 
	C767.923767,428.075073 762.256714,427.963745 756.590820,427.976044 
	C743.527466,428.004395 743.121033,427.495209 744.072876,414.445251 
	C744.347839,410.675659 746.072205,409.065216 749.738220,409.083191 
	C756.570435,409.116699 763.404297,408.981781 770.235168,409.079590 
	C774.297058,409.137756 775.857605,407.247711 775.936646,403.310028 
	C776.023682,398.974396 774.494873,396.934540 769.862183,396.878082 
	C761.917664,396.781250 753.979187,396.192627 746.970764,395.805267 
M524.014343,364.713165 
	C524.014343,364.713165 523.727539,364.815765 523.727539,364.815765 
	C523.727539,364.815765 523.864075,365.116150 523.287964,365.485443 
	C512.983948,369.630310 503.327515,373.949951 498.647858,385.647461 
	C491.972504,402.333496 494.776428,421.156647 508.481903,432.611603 
	C513.860107,437.106659 521.443726,438.962891 527.979553,442.029724 
	C527.979553,442.029724 527.978027,441.975983 528.902100,441.939026 
	C536.669373,441.859039 544.567261,442.356018 551.693237,438.436981 
	C556.282593,435.912964 562.249573,434.045013 564.829102,430.080658 
	C571.222778,420.254395 575.014526,409.031830 572.774597,396.969696 
	C570.265137,383.455872 564.133545,372.249817 550.111572,367.589935 
	C544.353210,365.676239 538.361267,364.285095 532.367615,363.343292 
	C529.773560,362.935669 526.906311,364.266052 524.014343,364.713165 
M855.727966,630.257507 
	C854.511963,617.013916 853.086304,603.784424 852.188293,590.519348 
	C851.853088,585.566589 849.942566,583.533142 845.124634,583.946228 
	C843.802185,584.059570 842.442871,584.104187 841.132751,583.933350 
	C836.959167,583.389099 834.973633,585.316650 833.429199,589.164062 
	C828.343872,601.831848 822.924500,614.369263 817.390686,626.849121 
	C816.569946,628.700195 814.441406,629.971436 812.454529,631.979187 
	C811.230469,629.493896 810.521423,628.193237 809.934204,626.839661 
	C805.096863,615.688477 800.286072,604.525757 795.459290,593.369995 
	C791.130920,583.366272 791.005920,583.382324 780.241577,583.912598 
	C776.796875,584.082275 775.049866,585.358521 774.803528,588.903687 
	C774.273132,596.536804 773.596375,604.160400 772.920593,611.782654 
	C771.967407,622.533081 770.960815,633.278748 769.959900,643.857117 
	C769.959900,643.857117 769.735352,643.677429 769.735352,643.677429 
	C769.735352,643.677429 770.022766,643.989929 770.035217,644.919434 
	C770.011902,646.752197 769.978516,648.584839 769.967041,650.417664 
	C769.923157,657.422424 771.158203,658.373047 778.153259,658.136230 
	C782.603882,657.985596 783.333252,655.146790 783.567566,651.843933 
	C784.460693,639.257935 785.158569,626.657349 786.152649,614.079834 
	C786.294556,612.283386 787.664062,610.584045 788.465454,608.839722 
	C789.007385,608.993408 789.549255,609.147156 790.091187,609.300842 
	C790.909119,611.095215 791.780518,612.867371 792.536316,614.687500 
	C797.520203,626.689026 802.319702,638.771912 807.606873,650.637756 
	C808.465820,652.565308 811.454163,654.656799 813.450073,654.648743 
	C815.406616,654.640930 817.931763,652.428223 819.178833,650.513428 
	C821.515198,646.925842 823.108826,642.854553 825.058044,639.006042 
	C825.058044,639.006042 824.982788,639.012146 825.071045,638.249329 
	C828.432739,629.738220 831.709778,621.191833 835.239258,612.750854 
	C835.828186,611.342529 837.514343,610.393005 838.693481,609.231445 
	C839.416565,610.791626 840.629456,612.307068 840.776550,613.919800 
	C841.366089,620.383118 841.546692,626.882568 842.027771,633.357483 
	C842.545471,640.326355 842.877869,647.337646 843.951721,654.227539 
	C844.841980,659.939575 849.851501,657.694580 853.338745,657.979858 
	C857.013733,658.280579 857.196838,655.597229 857.074036,652.937500 
	C856.736145,645.622131 856.351807,638.308960 856.375610,630.495972 
	C856.563721,629.551025 856.751892,628.606140 856.940063,627.661194 
	C856.633911,627.631836 856.327698,627.602478 856.021545,627.573120 
	C856.021545,628.722290 856.021545,629.871399 855.727966,630.257507 
M144.349609,481.063354 
	C146.549042,486.277863 148.333572,491.716705 151.013000,496.671631 
	C174.224686,539.596069 197.642731,582.408813 220.873291,625.323120 
	C224.398148,631.834656 226.888168,638.917969 230.557205,645.336487 
	C234.382355,652.028015 239.243942,658.117981 243.312820,664.681458 
	C249.336731,674.398438 257.137634,674.542908 262.677094,664.487671 
	C293.376526,608.761902 324.143677,553.071838 354.486786,497.152100 
	C366.341705,475.304474 370.507111,451.573547 366.697845,426.985992 
	C362.834290,402.048065 352.966919,379.859711 334.028748,362.255371 
	C329.227020,357.791748 324.822083,353.243896 319.141144,349.584351 
	C296.795044,335.189514 272.657104,328.763947 246.148438,329.840393 
	C217.178101,331.016815 192.899124,343.585907 171.360748,361.366180 
	C162.353210,368.802063 156.841248,380.171356 151.192444,390.718475 
	C143.364777,405.333801 138.979568,421.037048 138.068558,437.492004 
	C137.262222,452.056091 139.607254,466.386230 144.349609,481.063354 
M800.998596,387.500061 
	C801.005493,402.987549 801.059753,418.475220 800.987366,433.962341 
	C800.968262,438.052399 802.438049,440.138397 806.817078,440.094421 
	C818.639526,439.975555 830.464661,439.980042 842.287292,440.092010 
	C846.656921,440.133392 848.076782,438.087738 848.098328,433.958740 
	C848.120728,429.657135 846.277893,427.905090 842.099060,427.984833 
	C836.772278,428.086517 831.441772,427.999878 826.112915,427.990540 
	C813.968933,427.969299 814.031128,427.970825 814.531860,415.683533 
	C814.713196,411.233521 816.477356,408.898651 821.218262,409.027863 
	C827.042236,409.186584 832.877991,408.919647 838.701599,409.084625 
	C843.023438,409.207062 845.130066,407.731659 845.125549,403.061707 
	C845.121094,398.470306 843.166626,396.818878 838.783691,396.924469 
	C832.252502,397.081787 825.714722,396.965271 819.179749,396.965271 
	C819.179810,396.587006 819.179932,396.208740 819.180054,395.830475 
	C826.906738,395.830475 834.633423,395.830475 842.360107,395.830475 
	C838.679443,394.789978 835.043457,394.792419 831.407471,394.789337 
	C827.577271,394.786072 823.728943,394.994385 819.924866,394.675934 
	C818.136414,394.526245 815.599426,393.853912 814.834961,392.566986 
	C811.429871,386.834564 816.113281,379.076447 822.734192,379.045776 
	C830.830139,379.008240 838.926453,379.036835 847.022583,379.036835 
	C847.023438,378.662354 847.024292,378.287872 847.025146,377.913391 
	C837.736206,377.913391 828.447266,377.913391 819.158325,377.913391 
	C826.982056,377.021484 834.791565,376.960846 842.599487,377.045990 
	C846.761414,377.091370 848.033813,374.944763 848.093933,371.103760 
	C848.155762,367.147339 846.656677,365.174438 842.598816,365.189453 
	C830.609131,365.233765 818.619080,365.244995 806.629395,365.203064 
	C802.638428,365.189087 800.898438,367.022980 800.994141,371.013641 
	C801.117859,376.172913 801.008240,381.337738 800.998596,387.500061 
M618.778259,543.686340 
	C610.344482,522.860657 601.796570,502.079926 593.566406,481.174133 
	C591.769226,476.609222 589.268799,474.823700 584.335938,474.795929 
	C579.288696,474.767517 576.910583,476.863892 575.195129,481.337921 
	C570.667358,493.146820 565.746521,504.804810 561.005310,516.532227 
	C557.324707,525.636108 553.744568,534.781311 549.985840,543.852661 
	C548.442932,547.576416 549.459595,548.989258 553.462708,549.126282 
	C561.402222,549.398071 562.324585,549.193420 564.941467,541.214966 
	C566.740356,535.730347 569.840576,533.412231 575.577026,533.763733 
	C580.883667,534.088867 586.226868,533.854492 591.553467,533.807068 
	C600.719482,533.725403 600.719299,533.705933 604.100403,542.195496 
	C606.838440,549.070312 608.510925,549.997925 615.766846,549.040833 
	C618.699402,548.653992 620.061646,547.430359 618.778259,543.686340 
M600.211975,620.190308 
	C596.069519,618.490967 591.947815,616.738464 587.778259,615.108459 
	C584.222351,613.718384 580.454163,612.781677 577.065796,611.076294 
	C573.117981,609.089539 571.045044,604.168274 572.914368,601.545959 
	C576.161316,596.991150 580.011353,592.836121 586.415527,594.268433 
	C590.097412,595.091858 593.913635,596.145386 597.130188,598.020386 
	C601.722900,600.697388 602.999878,597.123474 605.013184,594.725464 
	C607.468323,591.801270 605.664246,589.864624 603.264587,588.199341 
	C595.042114,582.493164 585.794922,581.912964 576.431396,583.617371 
	C565.519531,585.603455 558.589539,592.987671 558.544678,603.321350 
	C558.492065,615.450317 561.406494,619.008057 573.700073,623.737122 
	C578.039124,625.406250 582.937378,625.914062 586.912903,628.142639 
	C590.050964,629.901794 593.599915,633.113525 594.434082,636.335693 
	C596.102661,642.781006 592.093018,647.097595 585.347229,647.859131 
	C578.415649,648.641663 572.181213,646.741577 566.500916,642.768860 
	C561.624023,639.357849 559.608276,643.938293 557.221680,646.470276 
	C554.186707,649.690063 557.686890,651.359924 559.661438,652.584839 
	C569.831177,658.894104 580.785767,661.456909 592.592285,658.186462 
	C600.648621,655.954895 606.877930,651.325134 608.589233,642.751709 
	C610.324646,634.058105 608.659424,626.135071 600.211975,620.190308 
M621.553650,377.927887 
	C618.441284,377.927887 615.328918,377.927887 612.216553,377.927887 
	C620.584473,377.009827 628.910156,376.942780 637.233948,377.038574 
	C641.290039,377.085266 642.915710,375.213623 642.893677,371.257233 
	C642.872498,367.442535 641.498779,365.206543 637.395569,365.211456 
	C625.067810,365.226257 612.739990,365.216644 600.412231,365.197021 
	C596.738220,365.191193 594.935486,366.821838 594.945496,370.652130 
	C595.001282,391.976410 595.010071,413.301086 594.935974,434.625244 
	C594.919983,439.240540 597.520081,440.114197 601.384766,440.105652 
	C605.165771,440.097290 608.024658,439.446808 607.979492,434.769073 
	C607.919983,428.606049 607.944580,422.440216 608.060669,416.277985 
	C608.169556,410.498779 609.418091,409.230591 615.177490,409.106140 
	C621.172302,408.976654 627.171143,409.046631 633.167969,408.995575 
	C636.788818,408.964752 638.061951,406.913544 638.047668,403.502655 
	C638.033508,400.136688 636.895752,398.020874 633.199951,398.009949 
	C628.368896,397.995697 623.537842,397.953033 618.706787,397.936523 
	C607.930969,397.899689 607.930908,397.903198 608.020447,387.074036 
	C608.082642,379.553253 608.505066,379.099609 615.938660,379.070374 
	C623.945496,379.038910 631.952576,379.063263 639.959534,379.063263 
	C639.955994,378.684479 639.952393,378.305725 639.948853,377.926941 
	C634.144287,377.926941 628.339722,377.926941 621.553650,377.927887 
M667.490234,474.912964 
	C654.848999,474.925537 642.207520,474.982483 629.566589,474.924103 
	C625.687622,474.906189 624.250549,476.814575 624.241028,480.467712 
	C624.231567,484.077393 625.093628,486.753937 629.399719,486.765961 
	C633.224792,486.776611 637.049683,486.870972 640.874817,486.890503 
	C645.064148,486.911865 646.715271,488.963806 646.675903,493.153351 
	C646.524231,509.277985 646.530579,525.404480 646.556091,541.530212 
	C646.565918,547.726135 647.804260,549.033997 653.132507,549.075745 
	C658.741516,549.119751 659.695862,548.091248 659.826416,541.810974 
	C659.857483,540.314514 659.835510,538.817078 659.836243,537.320068 
	C659.843018,523.348022 659.809448,509.375793 659.872253,495.403992 
	C659.905457,488.022217 661.003357,486.966736 668.199890,486.857880 
	C670.860718,486.817627 673.524658,486.750458 676.183167,486.829590 
	C680.433838,486.956146 682.077026,484.955475 682.059692,480.744568 
	C682.041870,476.410645 680.122009,474.713287 675.967834,474.912720 
	C673.478943,475.032196 670.979004,474.920502 667.490234,474.912964 
M659.860168,633.500000 
	C659.877014,623.183167 659.929871,612.866272 659.894409,602.549622 
	C659.878662,597.974243 661.972351,595.810059 666.599670,595.965393 
	C669.923218,596.077026 673.255798,595.890808 676.582153,595.953247 
	C680.716980,596.030884 682.073181,593.853210 682.058594,589.999390 
	C682.044495,586.260376 681.008423,583.925232 676.732605,583.941467 
	C661.091187,584.000793 645.448975,584.008789 629.807861,583.907776 
	C625.654053,583.880859 624.228271,585.890503 624.220398,589.737793 
	C624.212708,593.466858 625.383484,595.896118 629.575806,595.879517 
	C632.736877,595.866943 635.907166,596.103882 639.057434,595.934143 
	C643.671875,595.685425 645.785156,598.229248 646.497192,602.292297 
	C646.867554,604.405090 646.878662,606.597839 646.884644,608.754883 
	C646.922241,622.399780 646.895386,636.044983 646.926514,649.689941 
	C646.943359,657.090210 647.724548,658.038208 653.505127,658.031372 
	C659.070190,658.024780 659.800720,657.125000 659.851624,649.975403 
	C659.888367,644.817139 659.860718,639.658508 659.860168,633.500000 
M593.002502,385.500305 
	C593.002502,403.352081 593.002502,421.203857 593.002502,439.055634 
	C593.264832,439.053284 593.527161,439.050964 593.789490,439.048615 
	C593.789490,414.632477 593.789490,390.216339 593.789490,365.800171 
	C593.527466,365.795258 593.265442,365.790314 593.003418,365.785370 
	C593.003418,372.023773 593.003418,378.262146 593.002502,385.500305 
M485.869598,512.499451 
	C485.869598,519.941650 485.869598,527.383789 485.869598,534.825989 
	C486.189636,534.817139 486.509705,534.808350 486.829742,534.799561 
	C486.829742,514.942932 486.829742,495.086304 486.829742,475.229706 
	C486.507751,475.228668 486.185791,475.227631 485.863800,475.226624 
	C485.863800,487.317230 485.863800,499.407867 485.869598,512.499451 
M368.451050,430.691406 
	C368.531616,430.349915 368.612213,430.008423 368.692810,429.666931 
	C368.514221,429.933716 368.335632,430.200470 368.451050,430.691406 
M768.354553,655.987244 
	C768.354553,655.987244 768.653381,655.903931 768.653381,655.903931 
	C768.653381,655.903931 768.359314,655.805908 768.354553,655.987244 
M414.499664,602.449158 
	C414.499664,602.449158 414.536194,602.525696 414.499664,602.449158 
M413.512512,395.379517 
	C413.512512,395.379517 413.405121,395.565094 413.405121,395.565094 
	C413.405121,395.565094 413.614075,395.540192 413.512512,395.379517 
M522.466614,474.656158 
	C522.466614,474.656158 522.586670,474.434448 522.586670,474.434448 
	C522.586670,474.434448 522.333801,474.472076 522.466614,474.656158 
z"/>
<path fill="#201C1A" opacity="1.000000" stroke="none" 
	d="
M144.227509,480.686340 
	C139.607254,466.386230 137.262222,452.056091 138.068558,437.492004 
	C138.979568,421.037048 143.364777,405.333801 151.192444,390.718475 
	C156.841248,380.171356 162.353210,368.802063 171.360748,361.366180 
	C192.899124,343.585907 217.178101,331.016815 246.148438,329.840393 
	C272.657104,328.763947 296.795044,335.189514 319.141144,349.584351 
	C324.822083,353.243896 329.227020,357.791748 334.028748,362.255371 
	C352.966919,379.859711 362.834290,402.048065 366.697845,426.985992 
	C370.507111,451.573547 366.341705,475.304474 354.486786,497.152100 
	C324.143677,553.071838 293.376526,608.761902 262.677094,664.487671 
	C257.137634,674.542908 249.336731,674.398438 243.312820,664.681458 
	C239.243942,658.117981 234.382355,652.028015 230.557205,645.336487 
	C226.888168,638.917969 224.398148,631.834656 220.873291,625.323120 
	C197.642731,582.408813 174.224686,539.596069 151.013000,496.671631 
	C148.333572,491.716705 146.549042,486.277863 144.227509,480.686340 
M324.977570,508.463409 
	C326.454254,506.659546 327.995209,504.904114 329.397766,503.044373 
	C346.178741,480.792511 352.639557,455.866669 348.718048,428.261322 
	C345.056427,402.485687 331.289490,382.680847 311.325531,367.065857 
	C291.049957,351.207184 267.383392,345.879333 242.116287,348.397369 
	C216.691238,350.931122 195.620255,362.717041 179.077850,381.942505 
	C159.671600,404.496338 152.876312,430.928406 157.715591,460.202667 
	C161.687775,484.231537 173.781647,503.892395 192.236435,519.369751 
	C213.278198,537.016785 237.726669,544.542297 265.197601,541.099976 
	C289.104797,538.104187 308.479126,526.609985 324.977570,508.463409 
z"/>
<path fill="#201C1B" opacity="1.000000" stroke="none" 
	d="
M825.011414,638.984436 
	C823.108826,642.854553 821.515198,646.925842 819.178833,650.513428 
	C817.931763,652.428223 815.406616,654.640930 813.450073,654.648743 
	C811.454163,654.656799 808.465820,652.565308 807.606873,650.637756 
	C802.319702,638.771912 797.520203,626.689026 792.536316,614.687500 
	C791.780518,612.867371 790.909119,611.095215 790.091187,609.300842 
	C789.549255,609.147156 789.007385,608.993408 788.465454,608.839722 
	C787.664062,610.584045 786.294556,612.283386 786.152649,614.079834 
	C785.158569,626.657349 784.460693,639.257935 783.567566,651.843933 
	C783.333252,655.146790 782.603882,657.985596 778.153259,658.136230 
	C771.158203,658.373047 769.923157,657.422424 769.967041,650.417664 
	C769.978516,648.584839 770.011902,646.752197 770.016907,644.462769 
	C769.998596,644.006165 769.977051,644.026489 769.977051,644.026489 
	C770.960815,633.278748 771.967407,622.533081 772.920593,611.782654 
	C773.596375,604.160400 774.273132,596.536804 774.803528,588.903687 
	C775.049866,585.358521 776.796875,584.082275 780.241577,583.912598 
	C791.005920,583.382324 791.130920,583.366272 795.459290,593.369995 
	C800.286072,604.525757 805.096863,615.688477 809.934204,626.839661 
	C810.521423,628.193237 811.230469,629.493896 812.454529,631.979187 
	C814.441406,629.971436 816.569946,628.700195 817.390686,626.849121 
	C822.924500,614.369263 828.343872,601.831848 833.429199,589.164062 
	C834.973633,585.316650 836.959167,583.389099 841.132751,583.933350 
	C842.442871,584.104187 843.802185,584.059570 845.124634,583.946228 
	C849.942566,583.533142 851.853088,585.566589 852.188293,590.519348 
	C853.086304,603.784424 854.511963,617.013916 855.866089,630.631348 
	C856.004150,631.005127 855.985901,630.994873 855.985901,630.994873 
	C856.351807,638.308960 856.736145,645.622131 857.074036,652.937500 
	C857.196838,655.597229 857.013733,658.280579 853.338745,657.979858 
	C849.851501,657.694580 844.841980,659.939575 843.951721,654.227539 
	C842.877869,647.337646 842.545471,640.326355 842.027771,633.357483 
	C841.546692,626.882568 841.366089,620.383118 840.776550,613.919800 
	C840.629456,612.307068 839.416565,610.791626 838.693481,609.231445 
	C837.514343,610.393005 835.828186,611.342529 835.239258,612.750854 
	C831.709778,621.191833 828.432739,629.738220 825.033936,638.623596 
	C824.996826,638.997864 825.011414,638.984436 825.011414,638.984436 
z"/>
<path fill="#201C1A" opacity="1.000000" stroke="none" 
	d="
M528.022949,442.020874 
	C521.443726,438.962891 513.860107,437.106659 508.481903,432.611603 
	C494.776428,421.156647 491.972504,402.333496 498.647858,385.647461 
	C503.327515,373.949951 512.983948,369.630310 523.651001,365.223663 
	C524.014038,364.961884 524.163208,364.806976 524.163208,364.806976 
	C526.906311,364.266052 529.773560,362.935669 532.367615,363.343292 
	C538.361267,364.285095 544.353210,365.676239 550.111572,367.589935 
	C564.133545,372.249817 570.265137,383.455872 572.774597,396.969696 
	C575.014526,409.031830 571.222778,420.254395 564.829102,430.080658 
	C562.249573,434.045013 556.282593,435.912964 551.693237,438.436981 
	C544.567261,442.356018 536.669373,441.859039 528.452148,441.967804 
	C528.002258,441.996582 528.022949,442.020874 528.022949,442.020874 
M510.269714,395.977692 
	C510.242340,400.755707 509.558502,405.640778 510.316864,410.290649 
	C512.208862,421.891846 521.287354,428.966553 532.819763,430.009888 
	C542.155579,430.854431 547.905334,425.507294 553.584351,419.827423 
	C555.578369,417.833130 557.047668,414.885590 557.735046,412.119446 
	C558.642395,408.468628 558.941772,404.553711 558.807007,400.777130 
	C558.318604,387.085571 549.746399,378.395294 536.371948,376.353851 
	C525.923706,374.759003 512.970459,385.216034 510.269714,395.977692 
z"/>
<path fill="#201C1A" opacity="1.000000" stroke="none" 
	d="
M746.038147,395.810486 
	C753.979187,396.192627 761.917664,396.781250 769.862183,396.878082 
	C774.494873,396.934540 776.023682,398.974396 775.936646,403.310028 
	C775.857605,407.247711 774.297058,409.137756 770.235168,409.079590 
	C763.404297,408.981781 756.570435,409.116699 749.738220,409.083191 
	C746.072205,409.065216 744.347839,410.675659 744.072876,414.445251 
	C743.121033,427.495209 743.527466,428.004395 756.590820,427.976044 
	C762.256714,427.963745 767.923767,428.075073 773.588318,427.993347 
	C777.751892,427.933289 779.081238,430.087494 779.075745,433.938934 
	C779.070435,437.667938 778.076782,440.066833 773.783569,440.046753 
	C761.285400,439.988312 748.786682,440.006683 736.288391,440.060852 
	C732.744629,440.076202 731.060120,438.443634 731.060425,434.930389 
	C731.062073,413.432983 731.064636,391.935577 731.032043,370.438232 
	C731.026672,366.893341 732.742004,365.221252 736.216431,365.218658 
	C748.714600,365.209351 761.212891,365.217834 773.710999,365.184967 
	C777.858276,365.174042 779.113953,367.405151 779.089417,371.248718 
	C779.064148,375.215515 777.477905,377.094055 773.437256,377.054382 
	C765.307068,376.974548 757.175537,377.030640 749.036804,378.000305 
	C758.046509,378.000305 767.056274,378.000305 776.066040,378.000305 
	C776.063538,378.349762 776.061035,378.699249 776.058594,379.048706 
	C768.439453,379.048706 760.820190,379.021912 753.201233,379.056244 
	C745.611694,379.090424 745.007202,379.688263 745.100403,387.438599 
	C745.128174,389.750671 745.535278,392.058197 745.916382,394.929779 
	C746.064209,395.491760 746.038147,395.810486 746.038147,395.810486 
z"/>
<path fill="#201C1B" opacity="1.000000" stroke="none" 
	d="
M800.998779,387.000122 
	C801.008240,381.337738 801.117859,376.172913 800.994141,371.013641 
	C800.898438,367.022980 802.638428,365.189087 806.629395,365.203064 
	C818.619080,365.244995 830.609131,365.233765 842.598816,365.189453 
	C846.656677,365.174438 848.155762,367.147339 848.093933,371.103760 
	C848.033813,374.944763 846.761414,377.091370 842.599487,377.045990 
	C834.791565,376.960846 826.982056,377.021484 819.158325,377.913391 
	C828.447266,377.913391 837.736206,377.913391 847.025146,377.913391 
	C847.024292,378.287872 847.023438,378.662354 847.022583,379.036835 
	C838.926453,379.036835 830.830139,379.008240 822.734192,379.045776 
	C816.113281,379.076447 811.429871,386.834564 814.834961,392.566986 
	C815.599426,393.853912 818.136414,394.526245 819.924866,394.675934 
	C823.728943,394.994385 827.577271,394.786072 831.407471,394.789337 
	C835.043457,394.792419 838.679443,394.789978 842.360107,395.830475 
	C834.633423,395.830475 826.906738,395.830475 819.180054,395.830475 
	C819.179932,396.208740 819.179810,396.587006 819.179749,396.965271 
	C825.714722,396.965271 832.252502,397.081787 838.783691,396.924469 
	C843.166626,396.818878 845.121094,398.470306 845.125549,403.061707 
	C845.130066,407.731659 843.023438,409.207062 838.701599,409.084625 
	C832.877991,408.919647 827.042236,409.186584 821.218262,409.027863 
	C816.477356,408.898651 814.713196,411.233521 814.531860,415.683533 
	C814.031128,427.970825 813.968933,427.969299 826.112915,427.990540 
	C831.441772,427.999878 836.772278,428.086517 842.099060,427.984833 
	C846.277893,427.905090 848.120728,429.657135 848.098328,433.958740 
	C848.076782,438.087738 846.656921,440.133392 842.287292,440.092010 
	C830.464661,439.980042 818.639526,439.975555 806.817078,440.094421 
	C802.438049,440.138397 800.968262,438.052399 800.987366,433.962341 
	C801.059753,418.475220 801.005493,402.987549 800.998779,387.000122 
z"/>
<path fill="#201C1A" opacity="1.000000" stroke="none" 
	d="
M716.038757,646.111755 
	C725.001526,646.396484 733.963013,646.741028 742.927734,646.935242 
	C746.324219,647.008850 748.795898,647.717590 748.947327,651.819214 
	C749.097168,655.877258 747.753662,658.135559 743.308350,658.100891 
	C730.981018,658.004578 718.652405,658.014648 706.324707,658.072083 
	C702.686829,658.089050 701.186829,656.277771 701.184082,652.861023 
	C701.167297,631.703674 701.161743,610.546387 701.132507,589.389038 
	C701.127380,585.686157 702.812805,583.913086 706.609497,583.933960 
	C718.937073,584.001953 731.265625,584.013000 743.593079,583.941589 
	C747.823730,583.917053 748.996155,586.176575 749.003967,589.955750 
	C749.011780,593.768127 747.731018,596.005676 743.563171,595.980347 
	C736.233582,595.935852 728.901794,596.098572 721.573669,595.988647 
	C716.911499,595.918762 714.816040,598.100708 714.890869,602.633850 
	C714.899170,603.133240 714.871765,603.633179 714.871094,604.132874 
	C714.856018,614.466614 715.483276,615.082825 725.886414,615.085999 
	C730.884033,615.087463 735.881592,615.129456 740.879211,615.137329 
	C746.062744,615.145508 745.976624,618.722168 745.975647,622.424011 
	C745.974670,626.409729 743.967224,627.445374 740.261047,627.391174 
	C733.777771,627.296387 727.288574,627.730286 720.800232,627.812866 
	C716.073608,627.873047 714.143372,630.145264 714.717590,634.772461 
	C715.105347,637.897461 715.394348,641.034668 715.879150,644.842896 
	C716.033386,645.716736 716.036072,645.914246 716.038757,646.111755 
z"/>
<path fill="#201C1A" opacity="1.000000" stroke="none" 
	d="
M618.898193,544.038574 
	C620.061646,547.430359 618.699402,548.653992 615.766846,549.040833 
	C608.510925,549.997925 606.838440,549.070312 604.100403,542.195496 
	C600.719299,533.705933 600.719482,533.725403 591.553467,533.807068 
	C586.226868,533.854492 580.883667,534.088867 575.577026,533.763733 
	C569.840576,533.412231 566.740356,535.730347 564.941467,541.214966 
	C562.324585,549.193420 561.402222,549.398071 553.462708,549.126282 
	C549.459595,548.989258 548.442932,547.576416 549.985840,543.852661 
	C553.744568,534.781311 557.324707,525.636108 561.005310,516.532227 
	C565.746521,504.804810 570.667358,493.146820 575.195129,481.337921 
	C576.910583,476.863892 579.288696,474.767517 584.335938,474.795929 
	C589.268799,474.823700 591.769226,476.609222 593.566406,481.174133 
	C601.796570,502.079926 610.344482,522.860657 618.898193,544.038574 
M594.596252,515.898743 
	C592.438049,509.978027 590.383484,504.015930 588.051270,498.164581 
	C587.440674,496.632843 585.967285,495.444977 584.890137,494.099182 
	C583.662720,495.324066 581.915222,496.331818 581.297546,497.811249 
	C578.551086,504.388977 576.107971,511.094177 573.596619,517.768860 
	C572.325562,521.147034 573.806152,522.912720 577.161560,523.143799 
	C581.126404,523.416687 585.108521,523.430115 589.080811,523.606995 
	C594.943970,523.868042 596.158142,522.419678 594.596252,515.898743 
z"/>
<path fill="#201C1A" opacity="1.000000" stroke="none" 
	d="
M752.012024,535.984558 
	C750.782288,538.516724 749.465698,541.010925 748.341614,543.589172 
	C746.231873,548.427795 739.232056,551.255554 734.764038,548.605957 
	C733.917236,548.103760 733.624695,545.372009 734.130493,544.082520 
	C739.664246,529.975403 745.408203,515.950684 751.093567,501.903015 
	C754.092041,494.494141 757.249451,487.143799 760.017944,479.649902 
	C761.436035,475.811188 763.932800,474.739807 767.688599,474.869446 
	C771.584534,475.003998 775.178528,474.762848 777.055908,479.499939 
	C785.584229,501.019775 794.305847,522.463562 803.064941,543.890991 
	C804.644775,547.755615 803.426880,548.983337 799.541748,549.128845 
	C791.666870,549.423828 790.984253,549.092407 788.070862,541.775085 
	C784.888123,533.781067 784.151428,533.185730 775.649597,533.145569 
	C769.656982,533.117249 763.654785,533.204041 757.674927,533.550354 
	C755.858032,533.655518 754.101135,534.796326 752.156738,535.730347 
	C751.996704,535.997864 752.012024,535.984558 752.012024,535.984558 
M765.185852,497.947296 
	C762.791809,504.336151 760.345886,510.706207 758.021362,517.120239 
	C756.385925,521.632874 757.217834,522.819763 762.099182,522.964661 
	C765.924744,523.078186 769.757751,523.062683 773.584656,522.976746 
	C779.345337,522.847412 780.539795,521.210388 778.659790,515.873230 
	C776.503418,509.751740 774.276306,503.651276 771.881409,497.620514 
	C771.284180,496.116547 769.924011,494.915558 768.914490,493.575317 
	C767.752258,494.816132 766.589966,496.056946 765.185852,497.947296 
z"/>
<path fill="#201C1B" opacity="1.000000" stroke="none" 
	d="
M502.165985,525.031250 
	C501.789978,530.970398 501.310425,536.905334 501.067261,542.849915 
	C500.826416,548.738708 499.989899,549.752991 494.577850,549.782043 
	C489.098694,549.811462 487.954102,548.737061 487.944031,543.032471 
	C487.907837,522.552856 487.905762,502.073090 487.956787,481.593567 
	C487.971558,475.658447 488.681396,474.871521 494.623657,474.959198 
	C507.362335,475.147156 520.379883,473.211060 532.423889,479.283386 
	C533.951233,480.053436 535.256165,481.407806 536.435547,482.700073 
	C541.461731,488.207581 542.725159,495.008148 542.944336,502.574921 
	C542.996460,502.997162 543.020691,502.976776 543.020691,502.976776 
	C542.648743,503.898956 542.297302,504.830017 541.901367,505.741760 
	C540.193298,509.674469 539.501892,515.610596 536.547791,517.124573 
	C529.789368,520.588196 521.981323,522.129456 514.480042,523.962158 
	C511.009796,524.810059 507.260010,524.513672 503.084839,524.910583 
	C502.532684,525.085144 502.165985,525.031250 502.165985,525.031250 
M502.038666,500.490051 
	C502.064423,513.334534 503.899231,514.822266 516.715820,512.383667 
	C517.369751,512.259216 518.239319,512.322571 518.633301,511.925842 
	C522.015442,508.520386 526.331421,505.539490 528.382935,501.438507 
	C531.157959,495.891327 524.629395,489.742310 519.641602,487.687317 
	C507.112976,482.525421 502.061188,486.204620 502.038666,500.490051 
z"/>
<path fill="#201C1A" opacity="1.000000" stroke="none" 
	d="
M467.022919,641.972961 
	C464.195740,649.228210 459.757172,654.715698 452.304504,658.026978 
	C442.300598,662.471802 420.578400,657.825745 413.865082,649.263245 
	C412.215515,647.159363 411.978943,645.411560 414.258453,643.840210 
	C416.564056,642.250793 417.785553,637.983765 421.986237,640.879272 
	C425.120056,643.039551 428.341003,645.246277 431.832245,646.679077 
	C439.197418,649.701843 446.552124,647.652222 451.384857,641.590576 
	C452.128357,640.658020 452.867981,638.613342 452.403442,638.007324 
	C449.466431,634.175842 448.003296,628.998657 442.536957,627.382019 
	C435.690735,625.357178 428.926514,623.050903 422.155548,620.780701 
	C421.283203,620.488220 420.243164,619.856445 419.854218,619.090637 
	C415.716217,610.943115 413.235931,602.420410 418.163239,593.887329 
	C422.408691,586.535156 429.712677,583.638733 437.910095,583.031433 
	C441.558380,582.761230 445.237701,582.910034 449.438904,582.909607 
	C449.974884,582.950562 450.141113,583.118835 450.141113,583.118835 
	C455.713654,585.884155 462.232330,587.233337 465.596741,593.315002 
	C461.620850,598.570557 458.094727,599.188416 452.602112,597.085266 
	C448.522034,595.523010 443.979156,594.445251 439.649231,594.467651 
	C435.496002,594.489075 431.303802,596.339539 430.596527,601.432068 
	C429.939178,606.165405 433.117249,610.983704 437.710114,612.628296 
	C441.465759,613.973206 445.299225,615.099182 449.071899,616.398499 
	C462.541290,621.037476 466.807465,626.973206 466.956970,641.569397 
	C466.996063,641.997986 467.022919,641.972961 467.022919,641.972961 
z"/>
<path fill="#201C1A" opacity="1.000000" stroke="none" 
	d="
M440.990906,486.009247 
	C435.897156,486.335236 430.668488,490.315735 430.224243,494.205688 
	C429.742493,498.424164 432.295532,501.748810 438.018433,503.835388 
	C443.016998,505.657776 448.208801,506.968872 453.153809,508.915863 
	C467.808685,514.685913 472.509186,532.921509 459.571014,545.353394 
	C453.932251,550.771484 444.967316,552.414307 436.952240,550.748169 
	C430.107666,549.325317 423.577606,546.137939 417.112152,543.271545 
	C414.671509,542.189514 412.885406,540.000549 415.567841,536.888000 
	C419.648621,532.152954 422.431427,531.063599 425.364319,533.888733 
	C430.700348,539.028809 437.217346,539.680847 443.952789,538.583923 
	C448.566772,537.832458 451.809967,534.684509 452.602722,529.995544 
	C453.402985,525.262390 450.704742,521.860413 446.617584,520.077698 
	C442.218323,518.158813 437.541809,516.848694 432.936615,515.434692 
	C425.424133,513.128052 419.376282,509.156433 416.178101,501.252472 
	C415.991669,500.979370 416.017029,500.996521 416.017029,500.996521 
	C417.080627,494.660431 417.167145,487.912842 419.593872,482.150848 
	C420.935059,478.966461 425.921204,476.317963 429.746033,475.368408 
	C440.681763,472.653534 451.638824,472.939056 461.434174,479.578339 
	C462.959778,480.612396 463.646912,482.883514 464.721802,484.582581 
	C461.889008,486.280853 458.098846,490.061829 456.404602,489.283051 
	C451.510010,487.033264 446.695862,486.386871 441.376221,486.164612 
	C441.343109,485.807404 441.492889,485.707428 441.642670,485.607452 
	C441.425415,485.741394 441.208160,485.875336 440.990906,486.009247 
z"/>
<path fill="#201C1A" opacity="1.000000" stroke="none" 
	d="
M429.041412,400.953461 
	C427.648071,410.367645 430.197235,418.598969 437.637787,424.529541 
	C445.263763,430.608002 454.045807,431.368500 463.087799,427.637299 
	C464.092560,427.222748 464.834473,426.174652 465.702972,425.425842 
	C469.391327,422.245483 476.765472,421.959076 479.493927,425.699554 
	C480.494110,427.070740 479.614105,431.583557 478.112427,432.736664 
	C462.469727,444.748077 445.564941,444.507050 429.184814,435.097351 
	C425.003357,432.695343 420.831818,428.101074 418.518311,422.360382 
	C413.160736,409.066162 412.824860,396.463165 418.706909,383.220245 
	C420.893433,378.297485 424.469940,375.399445 428.204803,372.566742 
	C441.860809,362.209167 459.908997,361.200897 474.444916,370.634613 
	C476.445099,371.932739 479.209625,375.055359 478.776001,376.447266 
	C477.986328,378.982208 475.299164,381.199127 472.910461,382.823151 
	C472.005371,383.438507 469.441925,382.452728 468.139160,381.503784 
	C461.579102,376.725250 454.405945,376.001312 446.375122,377.843506 
	C446.000000,377.999695 446.007874,377.990265 446.007874,377.990265 
	C438.068634,379.713104 431.712860,386.407776 430.276276,394.486328 
	C429.932037,396.421753 429.416077,398.326630 428.997986,400.610748 
	C429.016846,400.975922 429.041412,400.953461 429.041412,400.953461 
z"/>
<path fill="#201C1A" opacity="1.000000" stroke="none" 
	d="
M600.511047,620.395569 
	C608.659424,626.135071 610.324646,634.058105 608.589233,642.751709 
	C606.877930,651.325134 600.648621,655.954895 592.592285,658.186462 
	C580.785767,661.456909 569.831177,658.894104 559.661438,652.584839 
	C557.686890,651.359924 554.186707,649.690063 557.221680,646.470276 
	C559.608276,643.938293 561.624023,639.357849 566.500916,642.768860 
	C572.181213,646.741577 578.415649,648.641663 585.347229,647.859131 
	C592.093018,647.097595 596.102661,642.781006 594.434082,636.335693 
	C593.599915,633.113525 590.050964,629.901794 586.912903,628.142639 
	C582.937378,625.914062 578.039124,625.406250 573.700073,623.737122 
	C561.406494,619.008057 558.492065,615.450317 558.544678,603.321350 
	C558.589539,592.987671 565.519531,585.603455 576.431396,583.617371 
	C585.794922,581.912964 595.042114,582.493164 603.264587,588.199341 
	C605.664246,589.864624 607.468323,591.801270 605.013184,594.725464 
	C602.999878,597.123474 601.722900,600.697388 597.130188,598.020386 
	C593.913635,596.145386 590.097412,595.091858 586.415527,594.268433 
	C580.011353,592.836121 576.161316,596.991150 572.914368,601.545959 
	C571.045044,604.168274 573.117981,609.089539 577.065796,611.076294 
	C580.454163,612.781677 584.222351,613.718384 587.778259,615.108459 
	C591.947815,616.738464 596.069519,618.490967 600.511047,620.395569 
z"/>
<path fill="#201C1B" opacity="1.000000" stroke="none" 
	d="
M677.051819,411.008606 
	C676.717224,418.296539 676.307434,425.582001 676.070435,432.873108 
	C675.858215,439.402496 674.899048,440.253113 668.369995,440.089386 
	C664.593506,439.994690 662.930908,438.400726 662.938599,434.631531 
	C662.982361,413.304108 662.987610,391.976410 662.928406,370.649078 
	C662.917786,366.833679 664.669128,365.172546 668.371521,365.185150 
	C680.700867,365.227203 693.030273,365.250031 705.359680,365.247131 
	C709.427246,365.246185 710.893982,367.382721 710.898621,371.244080 
	C710.903320,375.176941 709.338074,377.100800 705.259949,377.051361 
	C697.190613,376.953522 689.119202,377.022491 681.052612,377.933563 
	C690.334045,377.933563 699.615417,377.933563 708.896790,377.933563 
	C708.902344,378.304169 708.907837,378.674805 708.913330,379.045410 
	C701.109314,379.045410 693.305237,379.026947 685.501282,379.050598 
	C677.568665,379.074646 677.121948,379.547180 677.075867,387.646851 
	C677.068237,388.979767 677.165955,390.318878 677.069885,391.644623 
	C676.749634,396.065552 678.634399,398.081665 683.184692,397.965332 
	C689.344849,397.807800 695.513611,398.024109 701.677979,397.982208 
	C705.476318,397.956390 707.049316,399.744812 707.050476,403.499084 
	C707.051636,407.253357 705.460815,409.060760 701.680908,409.040253 
	C696.016174,409.009491 690.346375,408.939667 684.688416,409.148468 
	C682.622253,409.224701 680.583618,410.049591 678.023193,410.766541 
	C677.513855,411.000122 677.051819,411.008606 677.051819,411.008606 
z"/>
<path fill="#201C1B" opacity="1.000000" stroke="none" 
	d="
M622.044434,377.927429 
	C628.339722,377.926941 634.144287,377.926941 639.948853,377.926941 
	C639.952393,378.305725 639.955994,378.684479 639.959534,379.063263 
	C631.952576,379.063263 623.945496,379.038910 615.938660,379.070374 
	C608.505066,379.099609 608.082642,379.553253 608.020447,387.074036 
	C607.930908,397.903198 607.930969,397.899689 618.706787,397.936523 
	C623.537842,397.953033 628.368896,397.995697 633.199951,398.009949 
	C636.895752,398.020874 638.033508,400.136688 638.047668,403.502655 
	C638.061951,406.913544 636.788818,408.964752 633.167969,408.995575 
	C627.171143,409.046631 621.172302,408.976654 615.177490,409.106140 
	C609.418091,409.230591 608.169556,410.498779 608.060669,416.277985 
	C607.944580,422.440216 607.919983,428.606049 607.979492,434.769073 
	C608.024658,439.446808 605.165771,440.097290 601.384766,440.105652 
	C597.520081,440.114197 594.919983,439.240540 594.935974,434.625244 
	C595.010071,413.301086 595.001282,391.976410 594.945496,370.652130 
	C594.935486,366.821838 596.738220,365.191193 600.412231,365.197021 
	C612.739990,365.216644 625.067810,365.226257 637.395569,365.211456 
	C641.498779,365.206543 642.872498,367.442535 642.893677,371.257233 
	C642.915710,375.213623 641.290039,377.085266 637.233948,377.038574 
	C628.910156,376.942780 620.584473,377.009827 612.216553,377.927887 
	C615.328918,377.927887 618.441284,377.927887 622.044434,377.927429 
z"/>
<path fill="#201C1B" opacity="1.000000" stroke="none" 
	d="
M504.927734,628.208496 
	C503.977570,626.096252 503.224365,623.866333 502.044525,621.891296 
	C495.635956,611.163330 489.085938,600.519958 482.661133,589.801575 
	C479.857056,585.123657 480.515228,584.362854 485.943695,583.867249 
	C491.445038,583.364990 495.026001,585.152954 497.522400,590.265259 
	C500.367065,596.090698 503.883118,601.593567 507.199738,607.181824 
	C510.735046,613.138550 513.838562,613.137085 517.325317,607.228882 
	C521.051697,600.914673 524.695312,594.551514 528.438171,588.247131 
	C530.694946,584.445923 538.958313,582.038330 542.473328,584.498474 
	C543.219666,585.020813 543.023865,588.066040 542.266479,589.370972 
	C536.913757,598.593018 531.622253,607.880432 525.671143,616.716003 
	C520.813782,623.927734 518.098267,631.352844 518.992859,640.116028 
	C519.396912,644.073608 518.919434,648.113098 519.070251,652.106812 
	C519.246399,656.773193 516.891113,658.152893 512.586426,658.101379 
	C508.469147,658.052063 505.789856,657.097351 505.921417,652.267578 
	C506.075623,646.605774 506.013763,640.934631 505.898163,635.270569 
	C505.854645,633.138428 505.398010,631.014771 505.031189,628.507202 
	C504.932709,628.127197 504.927704,628.208496 504.927734,628.208496 
z"/>
<path fill="#201C1B" opacity="1.000000" stroke="none" 
	d="
M667.987122,474.912842 
	C670.979004,474.920502 673.478943,475.032196 675.967834,474.912720 
	C680.122009,474.713287 682.041870,476.410645 682.059692,480.744568 
	C682.077026,484.955475 680.433838,486.956146 676.183167,486.829590 
	C673.524658,486.750458 670.860718,486.817627 668.199890,486.857880 
	C661.003357,486.966736 659.905457,488.022217 659.872253,495.403992 
	C659.809448,509.375793 659.843018,523.348022 659.836243,537.320068 
	C659.835510,538.817078 659.857483,540.314514 659.826416,541.810974 
	C659.695862,548.091248 658.741516,549.119751 653.132507,549.075745 
	C647.804260,549.033997 646.565918,547.726135 646.556091,541.530212 
	C646.530579,525.404480 646.524231,509.277985 646.675903,493.153351 
	C646.715271,488.963806 645.064148,486.911865 640.874817,486.890503 
	C637.049683,486.870972 633.224792,486.776611 629.399719,486.765961 
	C625.093628,486.753937 624.231567,484.077393 624.241028,480.467712 
	C624.250549,476.814575 625.687622,474.906189 629.566589,474.924103 
	C642.207520,474.982483 654.848999,474.925537 667.987122,474.912842 
z"/>
<path fill="#201C1A" opacity="1.000000" stroke="none" 
	d="
M659.860962,634.000000 
	C659.860718,639.658508 659.888367,644.817139 659.851624,649.975403 
	C659.800720,657.125000 659.070190,658.024780 653.505127,658.031372 
	C647.724548,658.038208 646.943359,657.090210 646.926514,649.689941 
	C646.895386,636.044983 646.922241,622.399780 646.884644,608.754883 
	C646.878662,606.597839 646.867554,604.405090 646.497192,602.292297 
	C645.785156,598.229248 643.671875,595.685425 639.057434,595.934143 
	C635.907166,596.103882 632.736877,595.866943 629.575806,595.879517 
	C625.383484,595.896118 624.212708,593.466858 624.220398,589.737793 
	C624.228271,585.890503 625.654053,583.880859 629.807861,583.907776 
	C645.448975,584.008789 661.091187,584.000793 676.732605,583.941467 
	C681.008423,583.925232 682.044495,586.260376 682.058594,589.999390 
	C682.073181,593.853210 680.716980,596.030884 676.582153,595.953247 
	C673.255798,595.890808 669.923218,596.077026 666.599670,595.965393 
	C661.972351,595.810059 659.878662,597.974243 659.894409,602.549622 
	C659.929871,612.866272 659.877014,623.183167 659.860962,634.000000 
M646.479187,598.469788 
	C646.479187,598.469788 646.490601,598.516907 646.479187,598.469788 
z"/>
<path fill="#201C1B" opacity="1.000000" stroke="none" 
	d="
M839.590515,536.004272 
	C841.574585,536.637756 843.534180,537.704651 845.547607,537.818359 
	C850.357910,538.090088 855.193604,537.907410 860.019043,537.917725 
	C869.155273,537.937317 870.306335,539.403687 868.350525,548.906006 
	C853.857971,548.906006 839.298889,548.906006 824.274902,548.906006 
	C824.147339,547.197998 823.925110,545.595581 823.923523,543.992981 
	C823.903870,523.359985 823.892395,502.726929 823.933289,482.094025 
	C823.946045,475.648071 828.817017,472.455353 834.474854,475.564514 
	C835.954712,476.377716 836.918213,479.378967 836.944397,481.390656 
	C837.145752,496.862793 837.027161,512.338806 837.090393,527.813293 
	C837.100525,530.282654 837.523254,532.750305 838.282227,535.635071 
	C839.069580,536.035706 839.330017,536.019958 839.590515,536.004272 
z"/>
<path fill="#201C1B" opacity="1.000000" stroke="none" 
	d="
M715.017456,518.871155 
	C715.004150,519.081116 714.990845,519.291138 714.963623,520.050964 
	C714.949707,520.600708 714.825317,521.057983 714.825317,521.057983 
	C714.566772,526.852112 714.152893,532.644348 714.082825,538.440796 
	C713.949707,549.445129 713.200928,550.153137 701.354004,548.748047 
	C701.225830,547.265503 700.970459,545.672546 700.968140,544.079163 
	C700.938599,523.446594 700.921814,502.813995 700.955811,482.181488 
	C700.966614,475.633331 705.614807,472.505066 711.415955,475.476288 
	C712.822205,476.196564 713.863892,478.939758 713.911255,480.782684 
	C714.163574,490.593536 714.016846,500.414032 714.079651,510.230743 
	C714.094482,512.547302 714.384766,514.862122 714.749329,517.789185 
	C714.950256,518.400635 715.017456,518.871155 715.017456,518.871155 
z"/>
<path fill="#635F5E" opacity="1.000000" stroke="none" 
	d="
M593.002930,385.000427 
	C593.003418,378.262146 593.003418,372.023773 593.003418,365.785370 
	C593.265442,365.790314 593.527466,365.795258 593.789490,365.800171 
	C593.789490,390.216339 593.789490,414.632477 593.789490,439.048615 
	C593.527161,439.050964 593.264832,439.053284 593.002502,439.055634 
	C593.002502,421.203857 593.002502,403.352081 593.002930,385.000427 
z"/>
<path fill="#635F5E" opacity="1.000000" stroke="none" 
	d="
M839.370972,535.580750 
	C839.330017,536.019958 839.069580,536.035706 838.418823,536.023865 
	C838.028442,516.459595 838.028442,496.922821 838.028442,477.386078 
	C838.402771,477.386353 838.777161,477.386627 839.151489,477.386932 
	C839.151489,496.643707 839.151489,515.900452 839.370972,535.580750 
z"/>
<path fill="#635F5E" opacity="1.000000" stroke="none" 
	d="
M485.866699,511.998962 
	C485.863800,499.407867 485.863800,487.317230 485.863800,475.226624 
	C486.185791,475.227631 486.507751,475.228668 486.829742,475.229706 
	C486.829742,495.086304 486.829742,514.942932 486.829742,534.799561 
	C486.509705,534.808350 486.189636,534.817139 485.869598,534.825989 
	C485.869598,527.383789 485.869598,519.941650 485.866699,511.998962 
z"/>
<path fill="#635F5E" opacity="1.000000" stroke="none" 
	d="
M715.409424,518.692139 
	C715.017456,518.871155 714.950256,518.400635 714.887817,518.171448 
	C714.825317,503.676361 714.825317,489.410431 714.825317,475.144531 
	C715.150696,475.144135 715.476013,475.143707 715.801392,475.143280 
	C715.801392,489.599884 715.801392,504.056458 715.409424,518.692139 
z"/>
<path fill="#201C1B" opacity="1.000000" stroke="none" 
	d="
M716.504272,646.115540 
	C716.036072,645.914246 716.033386,645.716736 716.027832,645.222778 
	C726.090759,644.926270 736.156616,644.926270 746.222412,644.926270 
	C746.221680,645.323975 746.220947,645.721619 746.220215,646.119324 
	C736.470093,646.119324 726.719910,646.119324 716.504272,646.115540 
z"/>
<path fill="#635F5E" opacity="1.000000" stroke="none" 
	d="
M504.892029,628.125244 
	C504.851318,638.057129 504.851318,647.990967 504.851318,657.924744 
	C504.663452,657.924561 504.475555,657.924316 504.287689,657.924133 
	C504.287689,648.188782 504.287689,638.453430 504.607697,628.463257 
	C504.927704,628.208496 504.932709,628.127197 504.892029,628.125244 
z"/>
<path fill="#635F5E" opacity="1.000000" stroke="none" 
	d="
M714.843811,521.523193 
	C714.825317,521.057983 714.949707,520.600708 714.982544,520.366089 
	C715.364563,520.616150 716.015381,521.098877 716.018494,521.585815 
	C716.078674,531.016846 716.063110,540.448425 716.063110,549.879883 
	C715.662842,549.882874 715.262573,549.885864 714.862305,549.888916 
	C714.862305,540.588745 714.862305,531.288513 714.843811,521.523193 
z"/>
<path fill="#635F5E" opacity="1.000000" stroke="none" 
	d="
M746.504456,395.807861 
	C746.038147,395.810486 746.064209,395.491760 746.050415,395.332458 
	C755.325439,395.173126 764.614197,395.173126 773.903015,395.173126 
	C773.903992,395.383850 773.904968,395.594543 773.905945,395.805267 
	C764.927551,395.805267 755.949158,395.805267 746.504456,395.807861 
z"/>
<path fill="#635F5E" opacity="1.000000" stroke="none" 
	d="
M677.017456,411.475586 
	C677.051819,411.008606 677.513855,411.000122 677.744141,411.019470 
	C677.974365,420.305969 677.974365,429.573151 677.974365,438.840302 
	C677.643982,438.842560 677.313538,438.844849 676.983154,438.847107 
	C676.983154,429.878937 676.983154,420.910736 677.017456,411.475586 
z"/>
<path fill="#635F5E" opacity="1.000000" stroke="none" 
	d="
M502.109833,525.494873 
	C502.165985,525.031250 502.532684,525.085144 502.716461,525.109131 
	C502.900238,533.019592 502.900238,540.906128 502.900238,548.792603 
	C502.618042,548.791809 502.335876,548.791016 502.053680,548.790222 
	C502.053680,541.179626 502.053680,533.569092 502.109833,525.494873 
z"/>
<path fill="#201C1B" opacity="1.000000" stroke="none" 
	d="
M856.012817,631.012817 
	C856.021545,629.871399 856.021545,628.722290 856.021545,627.573120 
	C856.327698,627.602478 856.633911,627.631836 856.940063,627.661194 
	C856.751892,628.606140 856.563721,629.551025 856.180786,630.745422 
	C855.985901,630.994873 856.004150,631.005127 856.012817,631.012817 
z"/>
<path fill="#201C1A" opacity="1.000000" stroke="none" 
	d="
M429.003937,400.983948 
	C429.259583,401.477295 429.528137,401.962555 429.796692,402.447845 
	C429.623199,402.513733 429.449707,402.579590 429.276215,402.645477 
	C429.191284,402.222412 429.106323,401.799316 429.031403,401.164856 
	C429.041412,400.953461 429.016846,400.975922 429.003937,400.983948 
z"/>
<path fill="#201C1A" opacity="1.000000" stroke="none" 
	d="
M368.304077,430.579346 
	C368.335632,430.200470 368.514221,429.933716 368.692810,429.666931 
	C368.612213,430.008423 368.531616,430.349915 368.304077,430.579346 
z"/>
<path fill="#201C1B" opacity="1.000000" stroke="none" 
	d="
M770.010681,643.998047 
	C770.022766,643.989929 769.735352,643.677429 769.735352,643.677429 
	C769.735352,643.677429 769.959900,643.857117 769.968506,643.941772 
	C769.977051,644.026489 769.998596,644.006165 770.010681,643.998047 
z"/>
<path fill="#201C1A" opacity="1.000000" stroke="none" 
	d="
M415.980560,500.967468 
	C415.969452,500.955597 415.870392,501.279877 415.870392,501.279877 
	C415.870392,501.279877 415.914673,501.089722 415.965851,501.043121 
	C416.017029,500.996521 415.991669,500.979370 415.980560,500.967468 
z"/>
<path fill="#201C1B" opacity="1.000000" stroke="none" 
	d="
M768.356934,655.896606 
	C768.359314,655.805908 768.653381,655.903931 768.653381,655.903931 
	C768.653381,655.903931 768.354553,655.987244 768.356934,655.896606 
z"/>
<path fill="#201C1A" opacity="1.000000" stroke="none" 
	d="
M466.983643,642.011475 
	C466.971191,642.024963 467.026733,642.025269 467.024841,641.999146 
	C467.022919,641.972961 466.996063,641.997986 466.983643,642.011475 
z"/>
<path fill="#201C1B" opacity="1.000000" stroke="none" 
	d="
M824.989807,639.005005 
	C824.982788,639.012146 825.058044,639.006042 825.034729,638.995239 
	C825.011414,638.984436 824.996826,638.997864 824.989807,639.005005 
z"/>
<path fill="#201C1A" opacity="1.000000" stroke="none" 
	d="
M449.892029,582.866150 
	C449.809143,582.781738 450.148590,582.661621 450.148590,582.661621 
	C450.148590,582.661621 450.250549,582.972656 450.195831,583.045776 
	C450.141113,583.118835 449.974884,582.950562 449.892029,582.866150 
z"/>
<path fill="#201C1A" opacity="1.000000" stroke="none" 
	d="
M523.939087,365.039001 
	C523.864075,365.116150 523.727539,364.815765 523.727539,364.815765 
	C523.727539,364.815765 524.014343,364.713165 524.088745,364.760071 
	C524.163208,364.806976 524.014038,364.961884 523.939087,365.039001 
z"/>
<path fill="#201C1A" opacity="1.000000" stroke="none" 
	d="
M414.517944,602.487427 
	C414.536194,602.525696 414.499664,602.449158 414.517944,602.487427 
z"/>
<path fill="#201C1A" opacity="1.000000" stroke="none" 
	d="
M445.995331,378.003235 
	C445.990662,378.006775 446.018616,378.058350 446.013245,378.024292 
	C446.007874,377.990265 446.000000,377.999695 445.995331,378.003235 
z"/>
<path fill="#201C1A" opacity="1.000000" stroke="none" 
	d="
M413.563293,395.459839 
	C413.614075,395.540192 413.405121,395.565094 413.405121,395.565094 
	C413.405121,395.565094 413.512512,395.379517 413.563293,395.459839 
z"/>
<path fill="#201C1A" opacity="1.000000" stroke="none" 
	d="
M751.989807,536.005310 
	C751.982910,536.012756 752.055115,536.006470 752.033569,535.995483 
	C752.012024,535.984558 751.996704,535.997864 751.989807,536.005310 
z"/>
<path fill="#201C1B" opacity="1.000000" stroke="none" 
	d="
M542.986328,503.009247 
	C542.976135,503.021332 543.030396,503.019867 543.025513,502.998322 
	C543.020691,502.976776 542.996460,502.997162 542.986328,503.009247 
z"/>
<path fill="#201C1A" opacity="1.000000" stroke="none" 
	d="
M527.990112,441.986267 
	C527.978027,441.975983 527.979553,442.029724 528.001221,442.025299 
	C528.022949,442.020874 528.002258,441.996582 527.990112,441.986267 
z"/>
<path fill="#201C1B" opacity="1.000000" stroke="none" 
	d="
M522.400208,474.564117 
	C522.333801,474.472076 522.586670,474.434448 522.586670,474.434448 
	C522.586670,474.434448 522.466614,474.656158 522.400208,474.564117 
z"/>
<path fill="#010101" opacity="1.000000" stroke="none" 
	d="
M324.735107,508.720184 
	C308.479126,526.609985 289.104797,538.104187 265.197601,541.099976 
	C237.726669,544.542297 213.278198,537.016785 192.236435,519.369751 
	C173.781647,503.892395 161.687775,484.231537 157.715591,460.202667 
	C152.876312,430.928406 159.671600,404.496338 179.077850,381.942505 
	C195.620255,362.717041 216.691238,350.931122 242.116287,348.397369 
	C267.383392,345.879333 291.049957,351.207184 311.325531,367.065857 
	C331.289490,382.680847 345.056427,402.485687 348.718048,428.261322 
	C352.639557,455.866669 346.178741,480.792511 329.397766,503.044373 
	C327.995209,504.904114 326.454254,506.659546 324.735107,508.720184 
M253.985931,390.941345 
	C253.985931,390.941345 253.993698,391.005249 253.824600,391.732391 
	C249.635849,402.464264 246.879166,413.621704 250.060944,424.899445 
	C252.888153,434.920410 257.390472,444.463837 261.058472,454.253601 
	C268.189911,473.287292 268.592804,491.944183 257.772217,509.940674 
	C257.059937,511.125305 256.633545,512.481812 255.865997,514.233643 
	C257.397797,514.337219 258.246521,514.611145 258.962677,514.410889 
	C272.924622,510.507263 286.295105,505.822235 294.563873,492.454895 
	C311.979401,464.300964 312.705078,435.350525 298.778809,405.843567 
	C294.023315,395.767731 286.697815,387.503021 276.949646,381.745056 
	C269.509338,377.350281 264.560455,378.202454 258.869843,384.687775 
	C257.122284,386.679382 255.619705,388.885895 253.985931,390.941345 
M214.903580,496.552521 
	C219.614548,500.496246 224.010956,504.917725 229.108643,508.274109 
	C237.182510,513.590027 242.712524,512.048828 247.926834,503.856934 
	C253.318497,495.386414 254.972397,485.963135 254.512009,476.116455 
	C253.912125,463.286560 248.007889,452.109009 243.100510,440.646179 
	C234.267838,420.014587 235.347763,400.137177 247.363541,381.008484 
	C248.194641,379.685425 248.808731,378.226044 249.523727,376.830017 
	C249.224609,376.349213 248.925491,375.868378 248.626389,375.387573 
	C244.757812,376.458344 240.719223,377.123840 237.047623,378.664124 
	C208.129700,390.795746 196.687943,419.710632 197.385620,447.848511 
	C197.826096,465.613678 203.310287,481.889648 214.903580,496.552521 
z"/>
<path fill="#010101" opacity="1.000000" stroke="none" 
	d="
M510.354980,395.575195 
	C512.970459,385.216034 525.923706,374.759003 536.371948,376.353851 
	C549.746399,378.395294 558.318604,387.085571 558.807007,400.777130 
	C558.941772,404.553711 558.642395,408.468628 557.735046,412.119446 
	C557.047668,414.885590 555.578369,417.833130 553.584351,419.827423 
	C547.905334,425.507294 542.155579,430.854431 532.819763,430.009888 
	C521.287354,428.966553 512.208862,421.891846 510.316864,410.290649 
	C509.558502,405.640778 510.242340,400.755707 510.354980,395.575195 
z"/>
<path fill="#010101" opacity="1.000000" stroke="none" 
	d="
M594.724365,516.264343 
	C596.158142,522.419678 594.943970,523.868042 589.080811,523.606995 
	C585.108521,523.430115 581.126404,523.416687 577.161560,523.143799 
	C573.806152,522.912720 572.325562,521.147034 573.596619,517.768860 
	C576.107971,511.094177 578.551086,504.388977 581.297546,497.811249 
	C581.915222,496.331818 583.662720,495.324066 584.890137,494.099182 
	C585.967285,495.444977 587.440674,496.632843 588.051270,498.164581 
	C590.383484,504.015930 592.438049,509.978027 594.724365,516.264343 
z"/>
<path fill="#010101" opacity="1.000000" stroke="none" 
	d="
M765.306763,497.622528 
	C766.589966,496.056946 767.752258,494.816132 768.914490,493.575317 
	C769.924011,494.915558 771.284180,496.116547 771.881409,497.620514 
	C774.276306,503.651276 776.503418,509.751740 778.659790,515.873230 
	C780.539795,521.210388 779.345337,522.847412 773.584656,522.976746 
	C769.757751,523.062683 765.924744,523.078186 762.099182,522.964661 
	C757.217834,522.819763 756.385925,521.632874 758.021362,517.120239 
	C760.345886,510.706207 762.791809,504.336151 765.306763,497.622528 
z"/>
<path fill="#010101" opacity="1.000000" stroke="none" 
	d="
M502.039337,500.006348 
	C502.061188,486.204620 507.112976,482.525421 519.641602,487.687317 
	C524.629395,489.742310 531.157959,495.891327 528.382935,501.438507 
	C526.331421,505.539490 522.015442,508.520386 518.633301,511.925842 
	C518.239319,512.322571 517.369751,512.259216 516.715820,512.383667 
	C503.899231,514.822266 502.064423,513.334534 502.039337,500.006348 
z"/>
<path fill="#000000" opacity="1.000000" stroke="none" 
	d="
M440.985474,485.999512 
	C441.208160,485.875336 441.425415,485.741394 441.642670,485.607452 
	C441.492889,485.707428 441.343109,485.807404 441.076294,485.940308 
	C440.959259,485.973175 440.980072,485.989777 440.985474,485.999512 
z"/>
<path fill="#000000" opacity="1.000000" stroke="none" 
	d="
M646.484863,598.493347 
	C646.490601,598.516907 646.479187,598.469788 646.484863,598.493347 
z"/>
<path fill="#201C1A" opacity="1.000000" stroke="none" 
	d="
M254.004929,390.993988 
	C255.619705,388.885895 257.122284,386.679382 258.869843,384.687775 
	C264.560455,378.202454 269.509338,377.350281 276.949646,381.745056 
	C286.697815,387.503021 294.023315,395.767731 298.778809,405.843567 
	C312.705078,435.350525 311.979401,464.300964 294.563873,492.454895 
	C286.295105,505.822235 272.924622,510.507263 258.962677,514.410889 
	C258.246521,514.611145 257.397797,514.337219 255.865997,514.233643 
	C256.633545,512.481812 257.059937,511.125305 257.772217,509.940674 
	C268.592804,491.944183 268.189911,473.287292 261.058472,454.253601 
	C257.390472,444.463837 252.888153,434.920410 250.060944,424.899445 
	C246.879166,413.621704 249.635849,402.464264 253.912292,391.366211 
	C254.000000,391.000000 254.004929,390.993988 254.004929,390.993988 
z"/>
<path fill="#201C1A" opacity="1.000000" stroke="none" 
	d="
M214.668381,496.287170 
	C203.310287,481.889648 197.826096,465.613678 197.385620,447.848511 
	C196.687943,419.710632 208.129700,390.795746 237.047623,378.664124 
	C240.719223,377.123840 244.757812,376.458344 248.626389,375.387573 
	C248.925491,375.868378 249.224609,376.349213 249.523727,376.830017 
	C248.808731,378.226044 248.194641,379.685425 247.363541,381.008484 
	C235.347763,400.137177 234.267838,420.014587 243.100510,440.646179 
	C248.007889,452.109009 253.912125,463.286560 254.512009,476.116455 
	C254.972397,485.963135 253.318497,495.386414 247.926834,503.856934 
	C242.712524,512.048828 237.182510,513.590027 229.108643,508.274109 
	C224.010956,504.917725 219.614548,500.496246 214.668381,496.287170 
z"/>
<path fill="#201C1A" opacity="1.000000" stroke="none" 
	d="
M253.996857,391.002625 
	C253.993698,391.005249 253.985931,390.941345 253.995422,390.967651 
	C254.004929,390.993988 254.000000,391.000000 253.996857,391.002625 
z"/>
</svg>